<svg xmlns="http://www.w3.org/2000/svg" width="24" height="24" viewBox="0 0 24 24"><path d="M 2.25 1.5 a 0.75 0.75 0 0 0 -0.75 0.75 v 16.5 H 0 V 2.25 A 2.25 2.25 0 0 1 2.25 0 h 20.095 c 1.002 0 1.504 1.212 0.795 1.92 L 10.764 14.298 h 3.486 V 12.75 h 1.5 v 1.922 a 1.125 1.125 0 0 1 -1.125 1.125 H 9.264 l -2.578 2.578 h 11.689 V 9 h 1.5 v 9.375 a 1.5 1.5 0 0 1 -1.5 1.5 H 5.185 L 2.562 22.5 H 21.75 a 0.75 0.75 0 0 0 0.75 -0.75 V 5.25 H 24 v 16.5 A 2.25 2.25 0 0 1 21.75 24 H 1.655 C 0.653 24 0.151 22.788 0.86 22.08 L 13.19 9.75 H 9.75 v 1.5 h -1.5 V 9.375 A 1.125 1.125 0 0 1 9.375 8.25 h 5.314 l 2.625 -2.625 H 5.625 V 15 h -1.5 V 5.625 a 1.5 1.5 0 0 1 1.5 -1.5 h 13.19 L 21.438 1.5 z" fill="#000000"/></svg>
